<?xml version="1.0" ?><!DOCTYPE svg  PUBLIC '-//W3C//DTD SVG 1.1//EN'  'http://www.w3.org/Graphics/SVG/1.1/DTD/svg11.dtd'><svg width="32px" height="32px" viewBox="0 0 32 32" style="fill-rule:evenodd;clip-rule:evenodd;stroke-linejoin:round;stroke-miterlimit:2;" version="1.1" xml:space="preserve" xmlns="http://www.w3.org/2000/svg" xmlns:serif="http://www.serif.com/" xmlns:xlink="http://www.w3.org/1999/xlink"><path d="M11.062,3.903c1.179,-1.484 2.861,-2.403 4.719,-2.403c2.038,0 3.864,1.106 5.047,2.849c0.729,-0.421 1.56,-0.659 2.44,-0.659c2.874,0 5.232,2.546 5.232,5.711c0,3.164 -2.358,5.71 -5.232,5.71c-1.048,0 -2.025,-0.336 -2.845,-0.918c-1.175,1.427 -2.824,2.307 -4.642,2.307c-1.858,0 -3.54,-0.919 -4.719,-2.403c-0.71,0.393 -1.512,0.613 -2.361,0.613c-2.873,0 -5.231,-2.546 -5.231,-5.71c-0,-3.164 2.358,-5.71 5.231,-5.71c0.849,-0 1.651,0.22 2.361,0.613Zm-0.154,1.078c0.227,0.155 0.536,0.098 0.693,-0.127c0.992,-1.43 2.493,-2.354 4.18,-2.354c1.855,0 3.484,1.116 4.462,2.795c0.071,0.122 0.19,0.208 0.328,0.237c0.138,0.029 0.282,-0.001 0.397,-0.084c0.66,-0.478 1.451,-0.758 2.3,-0.758c2.35,0 4.232,2.124 4.232,4.711c0,2.587 -1.882,4.71 -4.232,4.71c-0.984,0 -1.889,-0.375 -2.606,-1.001c-0.106,-0.093 -0.247,-0.136 -0.388,-0.119c-0.14,0.016 -0.267,0.092 -0.348,0.207c-0.993,1.4 -2.478,2.302 -4.145,2.302c-1.687,0 -3.188,-0.924 -4.18,-2.354c-0.157,-0.225 -0.466,-0.282 -0.693,-0.127c-0.641,0.438 -1.397,0.691 -2.207,0.691c-2.349,0 -4.231,-2.123 -4.231,-4.71c-0,-2.587 1.882,-4.71 4.231,-4.71c0.81,-0 1.566,0.253 2.207,0.691Z" style="fill:#32b2ff;"/><path d="M11.451,18.785c-0.082,-0.174 -0.258,-0.285 -0.451,-0.285c-0.193,-0 -0.369,0.111 -0.451,0.285c-0,0 -1.049,2.253 -1.049,3.215c0,0.828 0.672,1.5 1.5,1.5c0.828,0 1.5,-0.672 1.5,-1.5c0,-0.962 -1.049,-3.215 -1.049,-3.215Zm-0.451,1.449c-0.246,0.603 -0.5,1.333 -0.5,1.766c0,0.276 0.224,0.5 0.5,0.5c0.276,0 0.5,-0.224 0.5,-0.5c0,-0.433 -0.254,-1.163 -0.5,-1.766Z" style="fill:#32b2ff;"/><path d="M22.156,15.785c-0.083,-0.174 -0.259,-0.285 -0.452,-0.285c-0.193,-0 -0.368,0.111 -0.451,0.285c-0,0 -1.549,3.303 -1.549,4.715c0,1.104 0.896,2 2,2c1.104,0 2,-0.896 2,-2c0,-1.412 -1.548,-4.715 -1.548,-4.715Zm-0.452,1.428c-0.426,0.992 -1,2.477 -1,3.287c0,0.552 0.448,1 1,1c0.552,0 1,-0.448 1,-1c0,-0.81 -0.574,-2.295 -1,-3.287Z" style="fill:#32b2ff;"/><path d="M17.951,23.785c-0.082,-0.174 -0.258,-0.285 -0.451,-0.285c-0.193,0 -0.369,0.111 -0.451,0.285c-0,0 -1.549,3.303 -1.549,4.715c0,1.104 0.896,2 2,2c1.104,-0 2,-0.896 2,-2c0,-1.412 -1.549,-4.715 -1.549,-4.715Zm-0.451,1.428c-0.426,0.992 -1,2.477 -1,3.287c0,0.552 0.448,1 1,1c0.552,-0 1,-0.448 1,-1c0,-0.81 -0.574,-2.295 -1,-3.287Z" style="fill:#32b2ff;"/></svg>